<svg width="36" height="36" viewBox="0 0 36 36" fill="none" xmlns="http://www.w3.org/2000/svg">
    <rect width="36" height="36" rx="18" fill="#16A07F" />
    <path
        d="M17.4498 22.449L13.5508 18.55C14.9988 14.167 19.1308 11 24.0008 11C24.3238 11 24.6438 11.014 24.9598 11.041C24.9868 11.357 25.0008 11.677 25.0008 12.001C25.0008 16.871 21.8358 21.001 17.4488 22.449H17.4498Z"
        stroke="white" />
    <path d="M14 22L13 23M15.5 23.5L14.5 24.5M12.5 20.5L11.5 21.5" stroke="white"
        stroke-linecap="round" />
    <path
        d="M19 18C19.5523 18 20 17.5523 20 17C20 16.4477 19.5523 16 19 16C18.4477 16 18 16.4477 18 17C18 17.5523 18.4477 18 19 18Z"
        stroke="white" />
    <path d="M20 12L24 16" stroke="white" stroke-linecap="round" />
    <path d="M20 21.5V25L11 16H14.5" stroke="white" stroke-linecap="round" stroke-linejoin="round" />
</svg>
    